<svg width="92" height="16" viewBox="0 0 92 16" fill="none" xmlns="http://www.w3.org/2000/svg">
<path d="M10.688 8.772H5.312V12.5H0.768V0.596H10.688C14.4533 0.596 16.336 1.908 16.336 4.532V4.788C16.336 7.444 14.4533 8.772 10.688 8.772ZM5.312 3.572V5.796H10.144C11.1467 5.796 11.648 5.43333 11.648 4.708V4.66C11.648 3.93467 11.1467 3.572 10.144 3.572H5.312ZM21.5858 0.596V12.5H17.2338V0.596H21.5858ZM30.5548 8.804V8.436L27.6748 8.948C27.2908 9.012 27.0188 9.09733 26.8588 9.204C26.6988 9.31067 26.6188 9.47067 26.6188 9.684V9.7C26.6188 9.94533 26.7201 10.1533 26.9227 10.324C27.1361 10.4947 27.4881 10.58 27.9788 10.58C28.7468 10.58 29.3654 10.404 29.8348 10.052C30.3148 9.68933 30.5548 9.27333 30.5548 8.804ZM30.6348 11.348C29.7601 12.2227 28.4161 12.66 26.6028 12.66H26.4268C25.0828 12.66 24.0801 12.3933 23.4188 11.86C22.7681 11.3267 22.4428 10.6707 22.4428 9.892V9.7C22.4428 8.95333 22.7094 8.37733 23.2428 7.972C23.7868 7.556 24.6828 7.3 25.9308 7.204L30.0748 6.836C30.3948 6.79333 30.5548 6.65467 30.5548 6.42C30.5548 6.292 30.5174 6.18533 30.4427 6.1C30.3788 6.01467 30.2028 5.94 29.9148 5.876C29.6268 5.80133 29.2161 5.764 28.6828 5.764H28.6188C28.1921 5.764 27.8348 5.796 27.5468 5.86C27.2694 5.91333 27.0721 5.99867 26.9548 6.116C26.8481 6.23333 26.7788 6.324 26.7468 6.388C26.7254 6.44133 26.7041 6.52667 26.6828 6.644H22.6508V6.548C22.6508 6.26 22.6721 6.00933 22.7148 5.796C22.7681 5.58267 22.9014 5.332 23.1148 5.044C23.3281 4.756 23.6161 4.52133 23.9788 4.34C24.3521 4.15867 24.8961 4.004 25.6108 3.876C26.3361 3.73733 27.1894 3.668 28.1708 3.668H29.0668C30.0908 3.668 30.9761 3.732 31.7228 3.86C32.4694 3.97733 33.0348 4.12667 33.4188 4.308C33.8028 4.47867 34.1068 4.70267 34.3308 4.98C34.5548 5.24667 34.6881 5.48667 34.7308 5.7C34.7841 5.90267 34.8108 6.148 34.8108 6.436V9.62C34.8108 9.86533 34.9334 9.988 35.1788 9.988H35.6428V12.5H32.0268C31.2268 12.5 30.7628 12.116 30.6348 11.348ZM36.8259 15.508V12.852H38.7779C39.0445 12.852 39.1779 12.7613 39.1779 12.58V12.564C39.1779 12.4467 39.0552 12.1587 38.8099 11.7L34.7459 3.892H39.3859L41.7859 9.428L44.0099 3.892H48.3299L44.1859 12.868C43.7592 13.796 43.2899 14.468 42.7779 14.884C42.2659 15.3 41.6312 15.508 40.8739 15.508H36.8259ZM48.7963 12.5V0.596H53.1483V5.396C54.2789 4.26533 55.7509 3.7 57.5642 3.7H57.6603C58.4283 3.7 59.0949 3.80667 59.6603 4.02C60.2363 4.22267 60.6789 4.49467 60.9883 4.836C61.2976 5.16667 61.5216 5.51333 61.6603 5.876C61.8096 6.228 61.8843 6.59067 61.8843 6.964V12.5H57.5163V8.388C57.5163 7.78 57.3456 7.3 57.0043 6.948C56.6736 6.58533 56.1509 6.404 55.4363 6.404C54.7216 6.404 54.1616 6.596 53.7563 6.98C53.3509 7.364 53.1483 7.87067 53.1483 8.5V12.5H48.7963ZM70.5316 12.74H69.3476C68.2916 12.74 67.3636 12.644 66.5636 12.452C65.7636 12.2493 65.129 12.004 64.6596 11.716C64.201 11.4173 63.8276 11.06 63.5396 10.644C63.2516 10.228 63.0596 9.83333 62.9636 9.46C62.8676 9.08667 62.8196 8.692 62.8196 8.276V8.02C62.8196 7.61467 62.8676 7.23067 62.9636 6.868C63.0596 6.49467 63.2463 6.10533 63.5236 5.7C63.8116 5.29467 64.185 4.948 64.6436 4.66C65.1023 4.372 65.7316 4.132 66.5316 3.94C67.3423 3.748 68.2756 3.652 69.3316 3.652H70.5476C74.8783 3.652 77.0436 5.10267 77.0436 8.004V8.292C77.0436 8.71867 77.0063 9.11333 76.9316 9.476C76.857 9.828 76.681 10.2173 76.4036 10.644C76.137 11.0707 75.7796 11.428 75.3316 11.716C74.8836 12.004 74.249 12.2493 73.4276 12.452C72.6063 12.644 71.641 12.74 70.5316 12.74ZM69.9556 6.084H69.9396C68.9583 6.084 68.2596 6.28133 67.8436 6.676C67.4383 7.06 67.2356 7.53467 67.2356 8.1V8.164C67.2356 8.74 67.4383 9.24133 67.8436 9.668C68.2596 10.084 68.9583 10.292 69.9396 10.292H69.9556C70.9156 10.292 71.6036 10.0787 72.0196 9.652C72.4356 9.21467 72.6436 8.71867 72.6436 8.164V8.1C72.6436 7.53467 72.4356 7.06 72.0196 6.676C71.6143 6.28133 70.9263 6.084 69.9556 6.084ZM82.3358 8.148V8.212C82.3358 8.756 82.5651 9.236 83.0238 9.652C83.4824 10.0573 84.1438 10.26 85.0078 10.26H85.0878C85.9624 10.26 86.5918 10.0573 86.9758 9.652C87.3598 9.24667 87.5518 8.76667 87.5518 8.212V8.148C87.5518 7.572 87.3598 7.092 86.9758 6.708C86.6024 6.31333 85.9731 6.116 85.0878 6.116H85.0078C84.1224 6.116 83.4558 6.31333 83.0078 6.708C82.5598 7.10267 82.3358 7.58267 82.3358 8.148ZM77.9838 3.892H82.3358V5.092C82.5278 4.92133 82.7518 4.756 83.0078 4.596C83.2744 4.42533 83.7384 4.23867 84.3998 4.036C85.0611 3.83333 85.7704 3.732 86.5278 3.732H86.8638C87.8131 3.732 88.6291 3.84933 89.3118 4.084C90.0051 4.308 90.5384 4.628 90.9118 5.044C91.2851 5.44933 91.5518 5.892 91.7118 6.372C91.8824 6.84133 91.9678 7.364 91.9678 7.94V8.276C91.9678 8.84133 91.8771 9.37467 91.6958 9.876C91.5251 10.3667 91.2478 10.8307 90.8638 11.268C90.4798 11.6947 89.9358 12.036 89.2318 12.292C88.5278 12.5373 87.6958 12.66 86.7358 12.66H86.4318C85.6958 12.66 85.0024 12.5747 84.3518 12.404C83.7118 12.2227 83.2531 12.052 82.9758 11.892C82.7091 11.732 82.4958 11.5827 82.3358 11.444V15.508H77.9838V3.892Z" fill="white"/>
</svg>
